<?xml version="1.0" encoding="UTF-8"?>
<svg id="Layer_1" data-name="Layer 1" xmlns="http://www.w3.org/2000/svg" version="1.1" viewBox="0 0 512 512">
  <defs>
    <style>
      .cls-1 {
        stroke: #fff;
        stroke-width: 20.2px;
      }

      .cls-1, .cls-2, .cls-3, .cls-4, .cls-5, .cls-6, .cls-7, .cls-8 {
        stroke-miterlimit: 10;
      }

      .cls-1, .cls-2, .cls-8 {
        fill: none;
      }

      .cls-2 {
        stroke-width: 5.8px;
      }

      .cls-2, .cls-3, .cls-5, .cls-6, .cls-7, .cls-8 {
        stroke: #000;
      }

      .cls-3, .cls-9 {
        fill: #000;
      }

      .cls-3, .cls-6, .cls-8 {
        stroke-width: 2.3px;
      }

      .cls-4 {
        fill: #e6e7e8;
        stroke: #231f20;
        stroke-linecap: round;
        stroke-width: 1.3px;
      }

      .cls-9, .cls-10 {
        stroke-width: 0px;
      }

      .cls-5 {
        stroke-width: 2.3px;
      }

      .cls-5, .cls-7 {
        fill: #fff;
      }

      .cls-6 {
        fill: #1e5b05;
      }

      .cls-7 {
        stroke-width: 2.5px;
      }

      .cls-10 {
        fill: #a31607;
      }
    </style>
  </defs>
  <rect class="cls-5" width="512" height="512"/>
  <g>
    <path class="cls-10" d="M265.9,504.3c-53.1,0-96-112.2-96-250.2S212.8,4,265.9,4s96,112.2,96,250.2-43,250.2-96,250.2Z"/>
    <path class="cls-9" d="M265.9,5.2c24.8,0,48.5,25.5,66.5,72,18.2,47.3,28.3,109.9,28.3,176.9s-10.1,129.6-28.3,176.9c-17.9,46.5-41.4,72-66.5,72s-48.5-25.5-66.5-72c-18.2-47.3-28.3-109.9-28.3-176.9s10.1-129.6,28.3-176.9C217.4,30.7,240.9,5.2,265.9,5.2M265.9,2.7c-53.8,0-97.3,112.5-97.3,251.5s43.5,251.5,97.3,251.5,97.3-112.5,97.3-251.5S319.7,2.7,265.9,2.7h0Z"/>
  </g>
  <polygon class="cls-1" points="361.4 255.4 170.9 255.4 170.9 255.4 358.4 255.4 361.4 255.4"/>
  <line class="cls-2" x1="216.6" y1="128" x2="331.8" y2="429.8"/>
  <path class="cls-4" d="M206.2,121.2c-2-5.3-.5-14.7-.3-18.7.5-6.1,11.9,8.3,13.9,13.6s.5,10.6-3,12.1-8.3-1.8-10.4-6.8l-.3-.3Z"/>
  <line class="cls-2" x1="316.7" y1="126.5" x2="200.4" y2="429.8"/>
  <path class="cls-4" d="M311.9,117.2c2-5.3,9.4-11.4,12.1-14.2,4.5-4.3,3.3,14.2,1.3,19.5-2,5.3-6.6,8.3-10.4,6.8s-5.1-6.8-3-12.1h0Z"/>
  <path class="cls-7" d="M-1-13h0"/>
  <g>
    <path class="cls-3" d="M330.1,73.5h1C314.4,30.7,291.1,4,265.1,4s-49.3,26.8-66,69.8h0"/>
    <line class="cls-8" x1="199.4" y1="73.5" x2="330.1" y2="73.5"/>
  </g>
  <g>
    <path class="cls-6" d="M201.4,431.1h-1c16.4,46,39.7,74.8,65.5,74.8s49.3-28.8,65.7-75.1h0"/>
    <line class="cls-8" x1="331.8" y1="431.1" x2="201.4" y2="431.1"/>
  </g>
</svg>